<svg width="11" height="11" viewBox="0 0 11 11" fill="none" xmlns="http://www.w3.org/2000/svg">
<path d="M8.83518 0.590027L10.4382 2.07895L9.21617 3.2145L7.61314 1.72558L8.83518 0.590027ZM2.96381 7.53239H4.56684L8.46061 3.91579L6.85757 2.42686L2.96381 6.04346V7.53239Z" fill="#4B332F"/>
<path d="M8.84159 9.02131H3.04823C3.03434 9.02131 3.01991 9.02628 3.00602 9.02628C2.98839 9.02628 2.97075 9.02181 2.95258 9.02131H1.36077V2.073H5.01943L6.08812 1.08038H1.36077C0.771391 1.08038 0.292084 1.52508 0.292084 2.073V9.02131C0.292084 9.56924 0.771391 10.0139 1.36077 10.0139H8.84159C9.12503 10.0139 9.39685 9.90935 9.59727 9.7232C9.79769 9.53705 9.91028 9.28457 9.91028 9.02131V4.71931L8.84159 5.71193V9.02131Z" fill="#4B332F"/>
</svg>
